<svg xmlns="http://www.w3.org/2000/svg" viewBox="0 0 120 120" width="120" height="120" role="img" aria-hidden="true">
  <rect width="120" height="120" fill="transparent"/>
  <circle cx="64.7" cy="84.5" r="0.92" fill="currentColor" opacity="0.62"/><circle cx="60.2" cy="90.7" r="0.60" fill="currentColor" opacity="0.50"/><circle cx="82.4" cy="88.8" r="1.53" fill="currentColor" opacity="0.79"/><circle cx="91.1" cy="33.5" r="2.19" fill="currentColor" opacity="0.57"/><circle cx="24.1" cy="81.2" r="1.66" fill="currentColor" opacity="0.55"/><circle cx="84.3" cy="96.0" r="1.98" fill="currentColor" opacity="0.42"/><circle cx="89.7" cy="77.8" r="2.37" fill="currentColor" opacity="0.65"/><circle cx="81.4" cy="56.4" r="1.81" fill="currentColor" opacity="0.35"/><circle cx="24.4" cy="50.6" r="1.00" fill="currentColor" opacity="0.69"/><circle cx="60.9" cy="46.4" r="1.68" fill="currentColor" opacity="0.50"/><circle cx="83.1" cy="84.9" r="1.57" fill="currentColor" opacity="0.41"/><circle cx="66.2" cy="61.8" r="1.66" fill="currentColor" opacity="0.60"/><circle cx="88.0" cy="72.3" r="0.71" fill="currentColor" opacity="0.66"/><circle cx="96.9" cy="77.1" r="1.96" fill="currentColor" opacity="0.66"/><circle cx="85.2" cy="89.7" r="1.86" fill="currentColor" opacity="0.33"/><circle cx="51.2" cy="59.6" r="1.20" fill="currentColor" opacity="0.40"/><circle cx="85.5" cy="85.9" r="0.96" fill="currentColor" opacity="0.49"/><circle cx="67.7" cy="95.6" r="2.39" fill="currentColor" opacity="0.46"/><circle cx="73.5" cy="89.3" r="0.88" fill="currentColor" opacity="0.55"/><circle cx="45.7" cy="30.9" r="1.15" fill="currentColor" opacity="0.30"/><circle cx="94.1" cy="46.4" r="1.71" fill="currentColor" opacity="0.40"/><circle cx="62.8" cy="35.7" r="2.20" fill="currentColor" opacity="0.47"/>
</svg>